<svg width="25" height="24" viewBox="0 0 25 24" fill="none" xmlns="http://www.w3.org/2000/svg">
<ellipse cx="12.5717" cy="12" rx="12.2866" ry="12" fill="#20A4EB"/>
<path d="M18.053 8.14376L15.4933 5.64376C15.3958 5.5509 15.2647 5.49926 15.1285 5.50001H10.0091C9.73759 5.50001 9.47716 5.60536 9.28515 5.7929C9.09313 5.98044 8.98526 6.23479 8.98526 6.50001V7.50001H7.96138C7.68983 7.50001 7.4294 7.60536 7.23739 7.7929C7.04537 7.98044 6.9375 8.23479 6.9375 8.50001V17.5C6.9375 17.7652 7.04537 18.0196 7.23739 18.2071C7.4294 18.3946 7.68983 18.5 7.96138 18.5H15.1285C15.4001 18.5 15.6605 18.3946 15.8525 18.2071C16.0446 18.0196 16.1524 17.7652 16.1524 17.5V16.5H17.1763C17.4479 16.5 17.7083 16.3946 17.9003 16.2071C18.0923 16.0196 18.2002 15.7652 18.2002 15.5V8.50001C18.201 8.36698 18.1481 8.23901 18.053 8.14376ZM15.1285 17.5H7.96138V8.50001H12.8696L15.1285 10.7063V17.5ZM17.1763 15.5H16.1524V10.5C16.1532 10.367 16.1003 10.239 16.0052 10.1438L13.4455 7.64376C13.348 7.5509 13.217 7.49926 13.0808 7.50001H10.0091V6.50001H14.9174L17.1763 8.70626V15.5ZM13.5927 13.5C13.5927 13.6326 13.5388 13.7598 13.4428 13.8536C13.3468 13.9473 13.2166 14 13.0808 14H10.0091C9.87337 14 9.74315 13.9473 9.64715 13.8536C9.55114 13.7598 9.4972 13.6326 9.4972 13.5C9.4972 13.3674 9.55114 13.2402 9.64715 13.1465C9.74315 13.0527 9.87337 13 10.0091 13H13.0808C13.2166 13 13.3468 13.0527 13.4428 13.1465C13.5388 13.2402 13.5927 13.3674 13.5927 13.5ZM13.5927 15.5C13.5927 15.6326 13.5388 15.7598 13.4428 15.8536C13.3468 15.9473 13.2166 16 13.0808 16H10.0091C9.87337 16 9.74315 15.9473 9.64715 15.8536C9.55114 15.7598 9.4972 15.6326 9.4972 15.5C9.4972 15.3674 9.55114 15.2402 9.64715 15.1465C9.74315 15.0527 9.87337 15 10.0091 15H13.0808C13.2166 15 13.3468 15.0527 13.4428 15.1465C13.5388 15.2402 13.5927 15.3674 13.5927 15.5Z" fill="white"/>
</svg>
