<svg width="20" height="20" viewBox="0 0 20 20" fill="none" xmlns="http://www.w3.org/2000/svg">
<path d="M6.5 13.625C6.60735 13.7077 6.73949 13.7518 6.875 13.75C6.97203 13.75 7.06772 13.7274 7.15451 13.684C7.24129 13.6406 7.31678 13.5776 7.375 13.5C7.75341 12.9955 8.24409 12.5859 8.8082 12.3039C9.3723 12.0218 9.99432 11.875 10.625 11.875C11.2557 11.875 11.8777 12.0218 12.4418 12.3039C13.0059 12.5859 13.4966 12.9955 13.875 13.5C13.9757 13.6309 14.1236 13.7172 14.2871 13.7406C14.4505 13.7639 14.6167 13.7225 14.75 13.625C14.8157 13.5758 14.871 13.5141 14.9128 13.4434C14.9546 13.3728 14.9821 13.2946 14.9937 13.2134C15.0053 13.1321 15.0008 13.0494 14.9804 12.9699C14.9601 12.8904 14.9242 12.8157 14.875 12.75C14.3219 12.0075 13.5838 11.423 12.7344 11.0547C13.1991 10.6295 13.5245 10.0738 13.6679 9.46045C13.8113 8.84709 13.766 8.20471 13.538 7.61755C13.3099 7.03039 12.9097 6.52586 12.3899 6.17011C11.8701 5.81436 11.2549 5.62401 10.625 5.62401C9.9951 5.62401 9.37991 5.81436 8.86009 6.17011C8.34027 6.52586 7.94009 7.03039 7.71202 7.61755C7.48396 8.20471 7.43866 8.84709 7.58206 9.46045C7.72546 10.0738 8.05088 10.6295 8.51562 11.0547C7.66618 11.423 6.92811 12.0075 6.375 12.75C6.27554 12.8826 6.23284 13.0493 6.25628 13.2134C6.27972 13.3775 6.36739 13.5255 6.5 13.625ZM8.75 8.75C8.75 8.37916 8.85997 8.01665 9.06599 7.70831C9.27202 7.39996 9.56486 7.15964 9.90747 7.01773C10.2501 6.87581 10.6271 6.83868 10.9908 6.91103C11.3545 6.98337 11.6886 7.16195 11.9508 7.42417C12.213 7.6864 12.3916 8.02049 12.464 8.38421C12.5363 8.74792 12.4992 9.12492 12.3573 9.46753C12.2154 9.81014 11.975 10.103 11.6667 10.309C11.3584 10.515 10.9958 10.625 10.625 10.625C10.1284 10.6229 9.65263 10.4247 9.30145 10.0736C8.95026 9.72237 8.75206 9.24665 8.75 8.75ZM16.25 1.875H5C4.66848 1.875 4.35054 2.0067 4.11612 2.24112C3.8817 2.47554 3.75 2.79348 3.75 3.125V4.6875H2.5C2.33424 4.6875 2.17527 4.75335 2.05806 4.87056C1.94085 4.98777 1.875 5.14674 1.875 5.3125C1.875 5.47826 1.94085 5.63723 2.05806 5.75444C2.17527 5.87165 2.33424 5.9375 2.5 5.9375H3.75V7.8125H2.5C2.33424 7.8125 2.17527 7.87835 2.05806 7.99556C1.94085 8.11277 1.875 8.27174 1.875 8.4375C1.875 8.60326 1.94085 8.76223 2.05806 8.87944C2.17527 8.99665 2.33424 9.0625 2.5 9.0625H3.75V10.9375H2.5C2.33424 10.9375 2.17527 11.0033 2.05806 11.1206C1.94085 11.2378 1.875 11.3967 1.875 11.5625C1.875 11.7283 1.94085 11.8872 2.05806 12.0044C2.17527 12.1217 2.33424 12.1875 2.5 12.1875H3.75V14.0625H2.5C2.33424 14.0625 2.17527 14.1283 2.05806 14.2456C1.94085 14.3628 1.875 14.5217 1.875 14.6875C1.875 14.8533 1.94085 15.0122 2.05806 15.1294C2.17527 15.2467 2.33424 15.3125 2.5 15.3125H3.75V16.875C3.75 17.2065 3.8817 17.5245 4.11612 17.7589C4.35054 17.9933 4.66848 18.125 5 18.125H16.25C16.5815 18.125 16.8995 17.9933 17.1339 17.7589C17.3683 17.5245 17.5 17.2065 17.5 16.875V3.125C17.5 2.79348 17.3683 2.47554 17.1339 2.24112C16.8995 2.0067 16.5815 1.875 16.25 1.875ZM16.25 16.875H5V3.125H16.25V16.875Z" fill="#5B636B"/>
</svg>
