<svg width="22" height="22" viewBox="0 0 22 22" fill="none" xmlns="http://www.w3.org/2000/svg">
<path d="M20.63 6.40458C21.578 8.39528 21.8859 10.6309 21.5112 12.8037C21.1365 14.9766 20.0977 16.9799 18.5378 18.5381C17.5489 19.5298 16.374 20.3167 15.0805 20.8536C13.7869 21.3905 12.4002 21.6668 10.9997 21.6668C9.59917 21.6668 8.21243 21.3905 6.9189 20.8536C5.62537 20.3167 4.45049 19.5298 3.46156 18.5381C2.46987 17.5491 1.68306 16.3741 1.14621 15.0805C0.609352 13.7869 0.333008 12.4001 0.333008 10.9995C0.333008 9.59893 0.609352 8.2121 1.14621 6.9185C1.68306 5.62489 2.46987 4.44994 3.46156 3.46095C5.3606 1.56018 7.90699 0.446168 10.5917 0.341586C13.2765 0.237004 15.9018 1.14956 17.943 2.89684L20.2608 0.568602C20.4202 0.437759 20.6226 0.370893 20.8286 0.38101C21.0346 0.391127 21.2294 0.477504 21.3752 0.62334C21.5211 0.769176 21.6074 0.964043 21.6176 1.17004C21.6277 1.37603 21.5608 1.57843 21.43 1.73785L15.061 8.09691L11.5843 11.5841C11.4274 11.7358 11.2178 11.8206 10.9997 11.8206C10.7815 11.8206 10.5719 11.7358 10.4151 11.5841C10.261 11.4286 10.1746 11.2185 10.1746 10.9995C10.1746 10.7806 10.261 10.5705 10.4151 10.4149L13.2662 7.57383C12.4935 7.0575 11.569 6.81742 10.6426 6.89253C9.71632 6.96764 8.84254 7.35353 8.16305 7.98761C7.48356 8.62169 7.03822 9.46676 6.89927 10.3857C6.76032 11.3047 6.93592 12.2437 7.39757 13.0503C7.85922 13.8569 8.57985 14.4839 9.44255 14.8296C10.3053 15.1752 11.2594 15.2192 12.1503 14.9545C13.0411 14.6897 13.8164 14.1317 14.3504 13.371C14.8843 12.6103 15.1456 11.6915 15.0918 10.7636C15.0863 10.6558 15.1021 10.548 15.1383 10.4464C15.1745 10.3447 15.2304 10.2512 15.3028 10.1711C15.3752 10.0911 15.4627 10.0261 15.5602 9.97996C15.6578 9.93379 15.7635 9.90732 15.8713 9.90207C15.9785 9.89514 16.0861 9.90962 16.1877 9.94467C16.2893 9.97973 16.3829 10.0346 16.4631 10.1062C16.5433 10.1778 16.6084 10.2647 16.6547 10.3617C16.701 10.4587 16.7275 10.5639 16.7328 10.6713C16.8092 11.9768 16.4378 13.2693 15.68 14.3351C14.9223 15.4009 13.8235 16.1762 12.5654 16.5328C11.3073 16.8895 9.96521 16.8061 8.76094 16.2964C7.55667 15.7867 6.56236 14.8814 5.9424 13.7299C5.32244 12.5785 5.11394 11.25 5.35137 9.96397C5.58881 8.67797 6.25796 7.51149 7.24821 6.65739C8.23845 5.80329 9.49049 5.31271 10.7974 5.26674C12.1042 5.22077 13.3876 5.62217 14.4354 6.40458L16.7738 4.06609C15.0651 2.64409 12.8914 1.90356 10.67 1.98672C8.44866 2.06987 6.33635 2.97086 4.73878 4.51663C3.14122 6.06239 2.17105 8.14394 2.01462 10.3615C1.85818 12.579 2.52652 14.7761 3.89125 16.5309C5.25598 18.2857 7.22089 19.4743 9.40856 19.8685C11.5962 20.2628 13.8524 19.8348 15.7438 18.6668C17.6352 17.4988 19.0283 15.6731 19.6557 13.5404C20.2831 11.4078 20.1005 9.11849 19.1429 7.11229C19.0491 6.91507 19.0374 6.68865 19.1105 6.48284C19.1836 6.27703 19.3354 6.10868 19.5326 6.01483C19.7298 5.92099 19.9562 5.90933 20.162 5.98242C20.3678 6.05551 20.5362 6.20737 20.63 6.40458Z" fill="#5B636B"/>
</svg>
